<?xml version="1.0" encoding="UTF-8" ?>
<!DOCTYPE svg PUBLIC "-//W3C//DTD SVG 1.1//EN" "http://www.w3.org/Graphics/SVG/1.1/DTD/svg11.dtd">
<svg width="265pt" height="262pt" viewBox="0 0 265 262" version="1.1" xmlns="http://www.w3.org/2000/svg">
<g id="#f7d80cff">
<path fill="#f7d80c" opacity="1.00" d=" M 122.01 3.03 C 159.06 -0.65 197.27 12.97 223.64 39.25 C 240.54 55.86 252.82 77.12 258.61 100.10 C 262.56 113.64 263.20 127.93 262.40 141.94 C 260.19 173.02 245.90 202.88 223.72 224.66 C 203.46 244.07 176.98 257.43 148.93 260.30 C 118.60 263.92 87.10 256.22 61.76 239.17 C 37.53 222.80 19.13 197.94 10.61 169.95 C 1.57 140.28 3.37 107.34 16.16 79.02 C 23.64 62.14 35.01 47.12 48.68 34.77 C 55.34 28.87 62.83 24.00 70.32 19.24 C 86.24 10.47 103.87 4.67 122.01 3.03 M 120.21 9.27 C 95.43 12.00 71.80 22.77 52.93 38.98 C 39.55 50.99 28.44 65.66 21.30 82.22 C 11.28 104.56 8.61 129.93 12.89 153.97 C 17.92 182.71 33.70 209.35 56.41 227.64 C 88.39 253.60 133.99 262.58 173.04 248.84 C 211.58 236.28 242.49 203.15 252.65 163.94 C 259.43 138.64 257.94 111.16 248.34 86.79 C 239.84 64.75 224.63 45.43 205.47 31.67 C 181.17 13.90 150.09 5.73 120.21 9.27 Z" />
<path fill="#f7d80c" opacity="1.00" d=" M 120.42 75.50 C 129.03 72.79 138.84 74.58 146.11 79.88 C 153.88 85.22 158.52 94.62 158.30 104.01 C 158.27 112.41 154.17 120.44 148.04 126.04 C 143.32 130.61 137.24 133.38 131.14 135.60 C 141.57 145.28 149.76 157.95 162.98 164.18 C 168.42 166.95 174.56 167.50 180.57 167.45 C 174.06 171.12 166.13 170.40 159.16 168.59 C 149.92 166.16 142.70 159.34 136.80 152.15 C 132.95 147.28 129.11 142.39 125.66 137.23 C 123.21 137.29 120.76 137.46 118.32 137.66 C 117.89 145.99 119.13 154.30 118.76 162.62 C 115.09 154.84 114.40 146.10 113.45 137.67 C 110.58 136.79 106.22 135.74 106.27 131.96 C 106.49 128.72 110.19 127.59 112.90 127.12 C 112.87 116.53 112.58 105.71 115.46 95.41 C 116.64 91.56 118.64 87.31 122.67 85.79 C 123.93 85.49 125.72 85.07 126.25 86.67 C 125.25 90.08 123.32 93.13 122.42 96.57 C 119.82 106.66 118.84 117.09 118.31 127.47 C 122.49 128.52 126.12 130.89 129.28 133.75 C 135.91 130.71 142.10 126.22 145.84 119.83 C 150.86 111.44 152.20 100.41 147.64 91.53 C 143.78 83.49 136.23 76.35 126.92 75.94 C 118.86 75.91 110.00 80.79 107.81 88.94 C 106.62 92.49 108.61 95.82 109.43 99.18 C 109.84 101.25 107.87 102.45 106.33 103.29 C 105.67 103.03 104.34 102.51 103.68 102.25 C 101.82 98.29 101.67 93.54 103.59 89.58 C 107.02 82.87 113.37 77.95 120.42 75.50 M 108.51 129.80 C 108.43 131.06 107.97 132.38 108.43 133.62 C 109.79 134.87 111.67 135.28 113.35 135.92 C 113.27 133.54 113.11 131.17 112.86 128.80 C 111.41 129.12 109.96 129.46 108.51 129.80 M 118.30 129.85 C 118.30 132.06 118.32 134.27 118.38 136.48 C 120.38 136.14 122.37 135.79 124.36 135.44 C 122.57 133.34 120.57 131.42 118.30 129.85 Z" />
<path fill="#f7d80c" opacity="1.00" d=" M 48.18 100.28 C 53.59 82.48 74.17 71.98 91.95 75.37 C 99.08 76.62 103.47 84.20 102.14 91.10 C 100.00 101.60 88.75 108.83 78.36 107.96 C 82.01 106.16 86.04 104.87 89.02 101.96 C 93.62 97.45 96.34 90.52 94.64 84.14 C 93.74 80.66 90.74 77.38 86.93 77.39 C 79.79 76.91 72.87 79.99 67.28 84.22 C 60.82 89.23 55.64 96.69 55.37 105.09 C 55.01 110.50 57.35 116.02 61.66 119.36 C 69.78 125.52 80.53 126.50 88.86 132.29 C 95.43 136.69 97.54 146.14 94.16 153.14 C 90.57 160.47 81.83 163.95 74.00 163.29 C 64.49 162.50 56.52 154.73 53.94 145.80 C 57.41 150.31 60.49 155.45 65.67 158.23 C 71.69 161.64 80.37 161.62 85.32 156.31 C 89.82 151.04 88.57 142.07 82.81 138.17 C 73.82 131.71 61.48 131.56 53.22 123.81 C 46.70 118.00 45.99 108.22 48.18 100.28 Z" />
<path fill="#f7d80c" opacity="1.00" d=" M 192.88 76.23 C 199.31 74.54 206.41 73.71 212.76 76.17 C 219.42 78.84 222.17 87.28 219.65 93.73 C 216.26 102.89 206.31 108.32 196.82 108.29 C 198.58 106.66 200.97 106.09 203.03 104.97 C 210.31 101.18 215.05 92.35 212.94 84.22 C 212.04 80.56 208.79 77.33 204.86 77.38 C 194.81 76.99 185.35 82.81 179.22 90.46 C 175.20 95.62 172.87 102.36 173.83 108.92 C 174.50 113.41 177.16 117.49 180.88 120.05 C 189.27 125.98 200.28 126.72 208.30 133.28 C 215.42 139.07 215.92 151.07 209.42 157.52 C 203.55 163.11 194.43 164.80 186.84 162.09 C 179.73 159.23 174.37 152.87 172.03 145.65 C 175.07 149.09 177.23 153.31 180.95 156.13 C 186.50 160.82 195.13 162.30 201.39 158.16 C 207.90 154.06 207.83 143.61 202.01 138.94 C 193.01 131.61 179.89 131.89 171.34 123.73 C 164.78 117.68 164.19 107.57 166.72 99.50 C 170.46 87.72 181.26 79.42 192.88 76.23 Z" />
<path fill="#f7d80c" opacity="1.00" d=" M 103.38 186.17 C 104.35 186.36 105.32 186.57 106.28 186.81 C 106.90 188.95 106.88 191.23 107.30 193.42 C 106.50 191.80 105.53 190.30 104.40 188.89 C 104.40 189.85 104.40 191.77 104.40 192.73 C 104.17 192.72 103.70 192.71 103.46 192.70 C 103.48 190.52 103.45 188.35 103.38 186.17 M 104.38 187.67 C 104.52 191.07 107.40 186.12 104.38 187.67 Z" />
<path fill="#f7d80c" opacity="1.00" d=" M 122.28 185.80 C 124.00 187.97 125.37 190.71 125.22 193.54 C 123.91 191.11 122.47 188.62 122.28 185.80 Z" />
<path fill="#f7d80c" opacity="1.00" d=" M 128.25 187.94 C 128.88 187.35 129.52 186.76 130.16 186.17 C 131.33 186.67 132.50 187.17 133.65 187.73 C 132.23 187.56 130.82 187.36 129.41 187.16 C 129.06 188.77 128.37 190.74 129.97 191.94 C 131.31 191.69 132.64 191.38 133.95 191.03 C 132.74 191.71 131.50 192.35 130.27 193.00 C 129.56 192.35 128.86 191.69 128.16 191.03 C 128.18 190.26 128.23 188.71 128.25 187.94 Z" />
<path fill="#f7d80c" opacity="1.00" d=" M 141.51 185.78 C 143.79 187.95 141.88 190.93 140.92 193.23 C 141.09 190.74 141.24 188.26 141.51 185.78 Z" />
<path fill="#f7d80c" opacity="1.00" d=" M 146.95 185.56 C 147.31 186.62 147.63 187.70 147.98 188.77 L 146.32 188.15 C 146.29 189.21 146.23 191.32 146.19 192.38 C 144.19 190.04 146.22 187.74 146.95 185.56 Z" />
<path fill="#f7d80c" opacity="1.00" d=" M 82.27 188.22 C 82.85 188.79 82.85 188.79 82.27 188.22 Z" />
<path fill="#f7d80c" opacity="1.00" d=" M 93.55 188.65 C 94.52 188.99 96.44 189.67 97.41 190.00 C 97.02 190.98 96.53 191.89 95.93 192.73 C 94.26 192.88 93.14 191.76 92.40 190.39 C 93.74 190.98 95.61 193.17 96.38 190.71 C 95.67 190.20 94.26 189.17 93.55 188.65 Z" />
<path fill="#f7d80c" opacity="1.00" d=" M 121.02 192.81 C 119.26 192.58 120.51 188.57 122.21 189.36 C 123.16 190.48 122.15 192.24 121.02 192.81 Z" />
<path fill="#f7d80c" opacity="1.00" d=" M 162.83 188.46 C 164.20 188.49 165.42 192.22 164.06 192.60 C 163.17 191.51 162.20 189.88 162.83 188.46 Z" />
<path fill="#f7d80c" opacity="1.00" d=" M 144.12 192.64 C 143.05 192.25 142.45 189.92 143.81 189.59 C 144.85 190.00 145.50 192.32 144.12 192.64 Z" />
</g>
<g id="#010101ff">
<path fill="#010101" opacity="1.00" d=" M 104.38 187.67 C 107.40 186.12 104.52 191.07 104.38 187.67 Z" />
</g>
</svg>
